<?xml version="1.0" encoding="UTF-8"?>
<svg xmlns="http://www.w3.org/2000/svg" style="display:none">
  <!-- Send icon -->
  <symbol id="icon-send" viewBox="0 0 24 24">
    <path d="M12 19V5M5 12l7-7 7 7" fill="none" stroke="currentColor" stroke-width="2.2" stroke-linecap="round" stroke-linejoin="round"/>
  </symbol>

  <!-- Copy icon -->
  <symbol id="icon-copy" viewBox="0 0 24 24" fill="none" stroke="currentColor" stroke-width="2">
    <rect x="9" y="9" width="13" height="13" rx="2"/>
    <path d="M5 15H4a2 2 0 01-2-2V4a2 2 0 012-2h9a2 2 0 012 2v1"/>
  </symbol>

  <!-- Edit icon -->
  <symbol id="icon-edit" viewBox="0 0 24 24" fill="none" stroke="currentColor" stroke-width="2">
    <path d="M11 4H4a2 2 0 00-2 2v14a2 2 0 002 2h14a2 2 0 002-2v-7"/>
    <path d="M18.5 2.5a2.121 2.121 0 013 3L12 15l-4 1 1-4 9.5-9.5z"/>
  </symbol>

  <!-- Thumbs-up icon -->
  <symbol id="icon-good" viewBox="0 0 24 24" fill="none" stroke="currentColor" stroke-width="2">
    <path d="M14 9V5a3 3 0 00-3-3l-4 9v11h11.28a2 2 0 002-1.7l1.38-9a2 2 0 00-2-2.3H14z"/>
    <path d="M7 22H4a2 2 0 01-2-2v-7a2 2 0 012-2h3"/>
  </symbol>

  <!-- Thumbs-down icon -->
  <symbol id="icon-poor" viewBox="0 0 24 24" fill="none" stroke="currentColor" stroke-width="2">
    <path d="M10 15v4a3 3 0 003 3l4-9V2H5.72a2 2 0 00-2 1.7l-1.38 9a2 2 0 002 2.3H10z"/>
    <path d="M17 2h2.67A2.31 2.31 0 0122 4v7a2.31 2.31 0 01-2.33 2H17"/>
  </symbol>
</svg>

