<?xml version="1.0" encoding="UTF-8"?>
<svg version="1.1" xmlns="http://www.w3.org/2000/svg" width="1024" height="1024">
<path d="M0 0 C9.76406966 7.06519829 13.88086568 19.12226453 15.79638672 30.66845703 C18.37870207 51.76894767 16.24515885 73.63771238 12.25 94.375 C12.11895874 95.06299683 11.98791748 95.75099365 11.85290527 96.45983887 C7.879013 117.30092914 3.2472635 137.97992406 -1.61132812 158.63012695 C-9.70177429 193.05563942 -17.49494314 227.58645712 -24.5 262.25 C-24.65889709 263.0263681 -24.81779419 263.80273621 -24.98150635 264.60263062 C-26.59659915 272.52896136 -27.98099662 280.43892333 -28.9453125 288.47265625 C-29.02730896 289.15435883 -29.10930542 289.8360614 -29.19378662 290.53842163 C-29.89493287 296.83119467 -29.94800288 303.04990809 -29.75 309.375 C-27.07157616 306.17219457 -24.90029508 303.06622021 -23 299.3515625 C-22.48429443 298.3502832 -21.96858887 297.34900391 -21.43725586 296.31738281 C-20.88046143 295.22264648 -20.32366699 294.12791016 -19.75 293 C-19.1526001 291.83823242 -18.5552002 290.67646484 -17.93969727 289.47949219 C-15.061561 283.88115688 -12.20570514 278.27148099 -9.35107422 272.66113281 C10.894916 232.87107025 10.894916 232.87107025 21.25 215.375 C21.79253418 214.45477051 22.33506836 213.53454102 22.89404297 212.58642578 C31.82693156 197.50108412 41.36913951 182.85445092 51.25 168.375 C51.79930176 167.56772461 52.34860352 166.76044922 52.91455078 165.92871094 C63.24431461 150.81119383 74.83020731 136.80489705 86.84716797 123.00732422 C87.86519671 121.82275406 88.86745752 120.62457468 89.85986328 119.41845703 C90.39208496 118.77634277 90.92430664 118.13422852 91.47265625 117.47265625 C92.19787476 116.58525757 92.19787476 116.58525757 92.93774414 115.67993164 C94.25 114.375 94.25 114.375 96.25 114.375 C96.51554688 113.78332031 96.78109375 113.19164062 97.0546875 112.58203125 C100.58792383 106.05824521 107.67369263 101.12731694 113.25 96.375 C114.12398437 95.611875 114.99796875 94.84875 115.8984375 94.0625 C133.40241298 79.04568457 155.22229339 63.82964484 179.25 64.375 C188.38460542 65.9339383 194.73636203 70.02348271 200.25 77.375 C203.7104233 82.91167729 204.0079329 90.02619739 203.25 96.375 C198.85290176 115.42194262 189.28798173 132.43834043 178.25 148.375 C177.83637207 148.97618652 177.42274414 149.57737305 176.99658203 150.19677734 C163.89581512 169.14826967 149.32545386 186.97487165 134.25 204.375 C133.70327637 205.00784912 133.15655273 205.64069824 132.59326172 206.29272461 C128.37455686 211.14999716 124.03983949 215.88316199 119.625 220.5625 C118.93277344 221.29645996 118.24054687 222.03041992 117.52734375 222.78662109 C109.32870478 231.44596341 101.1053834 240.10871201 92.0078125 247.8359375 C90.17072976 249.4444055 88.46092213 251.13338868 86.75 252.875 C83.08733858 256.58682466 79.21063486 259.98567228 75.25 263.375 C74.20692878 264.27071402 73.16396855 265.1665573 72.12109375 266.0625 C69.1154548 268.64273597 66.10645178 271.21902096 63.09667969 273.79443359 C60.14634835 276.31961142 57.19822196 278.84736007 54.25 281.375 C50.68086692 284.43497425 47.11112458 287.49422629 43.5390625 290.55078125 C40.59626165 293.06889616 37.65767612 295.59187127 34.72021484 298.11621094 C33.50222546 299.15904609 32.27737951 300.19386699 31.05078125 301.2265625 C26.61672054 305.00062675 22.45541383 309.03700374 18.3125 313.125 C17.73169678 313.69275146 17.15089355 314.26050293 16.55249023 314.84545898 C13.22305122 318.16299935 13.22305122 318.16299935 11.25 322.375 C16.6575602 320.87147615 20.97548222 318.32292007 25.6875 315.375 C26.48172363 314.88298096 27.27594727 314.39096191 28.09423828 313.8840332 C39.95624765 306.4937095 51.42539109 298.5832551 62.85375977 290.54321289 C68.29227458 286.72335915 73.77808679 282.99345139 79.32739258 279.3371582 C85.10200814 275.51376858 90.76524157 271.53555705 96.4375 267.5625 C105.39460752 261.29745148 114.46793587 255.25309797 123.66015625 249.33984375 C127.870461 246.63090158 132.0338173 243.85718847 136.1875 241.0625 C142.76823142 236.65262341 149.46065118 232.45799549 156.25 228.375 C156.83845703 228.0150293 157.42691406 227.65505859 158.03320312 227.28417969 C170.78137467 219.48916207 184.01575837 212.65825906 197.32080078 205.87548828 C199.62879381 204.69321414 201.9259034 203.49582196 204.21484375 202.27734375 C233.35009298 187.04346189 275.11523832 169.02973296 308.5 177.9375 C316.51175887 180.87826233 323.2513583 185.69760794 327.25 193.375 C330.2479354 200.79845908 329.34503242 207.83392112 326.75 215.25 C316.90846965 237.92830908 292.81539488 252.57880079 272.25 264.375 C271.64043457 264.72868652 271.03086914 265.08237305 270.40283203 265.44677734 C235.88036247 285.30517746 196.22785087 297.26259026 158.82781982 310.46429443 C156.30532069 311.35545602 153.78361385 312.24881941 151.26220703 313.14306641 C146.50954539 314.82853998 141.7554862 316.51001221 137 318.1875 C136.24669403 318.45325836 135.49338806 318.71901672 134.71725464 318.99282837 C126.60668381 321.84956151 118.48186613 324.65153149 110.3125 327.3359375 C109.60289124 327.56957504 108.89328247 327.80321259 108.16217041 328.04393005 C104.8184984 329.14307888 101.47216111 330.23256059 98.12011719 331.3059082 C96.96157227 331.68320068 95.80302734 332.06049316 94.609375 332.44921875 C93.08521973 332.93781372 93.08521973 332.93781372 91.53027344 333.4362793 C89.08918142 334.14926911 89.08918142 334.14926911 88.25 336.375 C86.44256442 336.56537154 84.63502948 336.75482439 82.82714844 336.94091797 C77.31643701 337.86911472 72.10772799 340.02735704 66.875 341.9375 C65.63943359 342.38279053 64.40386719 342.82808105 63.13085938 343.28686523 C54.44135187 346.46165989 45.97102437 349.95997242 37.59375 353.87890625 C34.25 355.375 34.25 355.375 32.10351562 355.84350586 C31.49185547 356.01889893 30.88019531 356.19429199 30.25 356.375 C29.1754644 358.1513932 29.1754644 358.1513932 29.25 359.375 C43.65384742 356.22479721 57.93774801 352.72007257 72.18844604 348.94491577 C273.45704916 295.64390558 273.45704916 295.64390558 330.79296875 328.84765625 C338.73821081 333.91550233 345.21583874 340.27251621 348.25 349.375 C348.97152173 356.69667134 348.40315866 362.24352286 344.25 368.375 C343.87230469 368.95765625 343.49460937 369.5403125 343.10546875 370.140625 C328.12890549 390.23003312 291.56170381 395.20592675 268.8125 398.6875 C264.6297515 399.29111559 260.44295505 399.84731281 256.25 400.375 C255.38391113 400.48682617 254.51782227 400.59865234 253.62548828 400.71386719 C238.56226666 402.60534718 223.41567126 403.03749488 208.25 403.375 C206.80681396 403.41004639 206.80681396 403.41004639 205.33447266 403.44580078 C184.48855353 403.89092269 163.47850099 402.65885014 142.71484375 400.8125 C137.96170057 400.39905923 133.26884534 400.25219359 128.5 400.3125 C127.79101562 400.31701172 127.08203125 400.32152344 126.3515625 400.32617188 C124.6510026 400.33766214 122.95048781 400.35557818 121.25 400.375 C121.25 400.045 121.25 399.715 121.25 399.375 C108.4718524 397.97635212 95.69207772 396.73304981 82.875 395.75 C82.02212402 395.68396576 81.16924805 395.61793152 80.29052734 395.54989624 C64.58081155 394.35452024 49.0040716 394.00505251 33.25 394.375 C33.25 395.035 33.25 395.695 33.25 396.375 C32.26 396.375 31.27 396.375 30.25 396.375 C42.08144426 399.9387997 53.92048776 403.42390867 65.9375 406.3125 C66.80270264 406.52350342 67.66790527 406.73450684 68.55932617 406.9519043 C72.58738875 407.89706542 76.10330769 408.38292867 80.25 408.375 C80.91 409.035 81.57 409.695 82.25 410.375 C84.99308434 411.14821714 87.70213164 411.82184089 90.48046875 412.44140625 C91.32575134 412.6359288 92.17103394 412.83045135 93.04193115 413.03086853 C94.87599541 413.45189357 96.71084137 413.86952432 98.5463562 414.28417969 C101.46750103 414.94427942 104.38640669 415.61357475 107.30493164 416.28515625 C115.8800533 418.25513264 124.46085631 420.19953046 133.04536438 422.12815857 C270.27778372 452.98470585 270.27778372 452.98470585 302.6875 504 C308.68122483 514.28371193 314.14430943 525.78270371 311.12890625 537.86328125 C308.11078232 546.48840875 303.11975731 552.72974294 295.25 557.375 C288.73609762 560.45805913 282.43515296 562.03284986 275.25 562.375 C274.59 562.045 273.93 561.715 273.25 561.375 C272.92 562.365 272.59 563.355 272.25 564.375 C271.92 563.715 271.59 563.055 271.25 562.375 C263.49525351 560.58289025 255.69720043 560.15262299 247.7734375 560.59765625 C244.69768034 560.32626591 243.543409 559.38294248 241.25 557.375 C237.73089752 555.02893168 234.08302902 553.82417163 230.125 552.4375 C192.38113673 538.82964166 157.48442017 518.82464329 123.074646 498.45428467 C120.69889921 497.0490219 118.32098561 495.6474511 115.94302368 494.24594116 C108.69964374 489.97631344 101.47067011 485.68290634 94.25 481.375 C93.25274902 480.78122559 92.25549805 480.18745117 91.22802734 479.57568359 C71.98722954 468.09394316 53.41587253 455.72145874 35.0625 442.875 C20.31498759 432.47193342 20.31498759 432.47193342 4.25 424.375 C7.06789893 429.73787788 10.24820918 433.89551445 14.4375 438.25 C15.03900879 438.88421875 15.64051758 439.5184375 16.26025391 440.171875 C21.15288169 445.30021694 26.12734006 450.34917956 31.125 455.375 C31.81360107 456.06835449 32.50220215 456.76170898 33.21166992 457.47607422 C38.62228132 462.86912081 44.19608859 468.02094328 50.25 472.6875 C50.91 473.244375 51.57 473.80125 52.25 474.375 C52.25 475.035 52.25 475.695 52.25 476.375 C52.82234375 476.61863281 53.3946875 476.86226562 53.984375 477.11328125 C56.65433538 478.60017298 58.38829007 480.35583908 60.5 482.5625 C63.86504668 486.00402502 67.30252988 489.23107064 70.953125 492.36328125 C73.93824329 494.97779812 76.84200293 497.67530861 79.75 500.375 C83.16953619 503.5473816 86.58841574 506.70761092 90.125 509.75 C98.90169284 517.35024252 107.35870535 525.37435252 115.49609375 533.65234375 C117.97354765 536.08565593 120.60703852 538.3217247 123.23828125 540.5859375 C126.73127266 543.69232598 129.97467067 547.04270842 133.25 550.375 C134.054375 551.15875 134.85875 551.9425 135.6875 552.75 C138.8215591 555.96049957 141.80419705 559.29107879 144.79296875 562.63671875 C147.25685617 565.38264098 149.7523354 568.0973094 152.25 570.8125 C157.12267836 576.17918262 161.75246791 581.69091521 166.25 587.375 C166.73871582 587.99117187 167.22743164 588.60734375 167.73095703 589.2421875 C190.6432844 618.25835323 218.14154085 657.50235571 214.25 696.375 C211.87272375 706.10797408 206.52296688 714.02603867 197.9375 719.25 C184.85531305 725.76906959 170.47699125 723.56482122 157.0234375 719.15234375 C142.9812985 714.15181192 129.19967221 707.30580765 117.25 698.375 C116.32058594 697.70339844 115.39117188 697.03179688 114.43359375 696.33984375 C108.4277834 691.93345027 102.60710455 687.30388555 96.8125 682.625 C96.13799805 682.08206299 95.46349609 681.53912598 94.76855469 680.97973633 C91.05030335 677.95296069 87.59076587 674.82389969 84.25 671.375 C83.54359375 670.69179688 82.8371875 670.00859375 82.109375 669.3046875 C77.22510049 664.54704233 72.82083755 659.57292194 68.5625 654.25 C66.19638678 651.30834573 63.75916884 648.43733589 61.3125 645.5625 C49.85269557 631.81781957 40.06321336 616.62749938 30.625 601.44921875 C29.2828187 599.27536748 29.2828187 599.27536748 27.25 597.375 C26.16683478 595.35504324 25.13311899 593.30843832 24.125 591.25 C23.49893015 589.97775028 22.87261863 588.70561945 22.24609375 587.43359375 C21.9197998 586.76827637 21.59350586 586.10295898 21.25732422 585.41748047 C20.25667535 583.38853513 19.24240484 581.36706228 18.22265625 579.34765625 C17.88314941 578.67428223 17.54364258 578.0009082 17.19384766 577.30712891 C16.55284885 576.03663878 15.91071821 574.76671861 15.26708984 573.49755859 C9.84343598 562.70451597 5.03440865 551.70572174 0.6875 540.4375 C0.4376535 539.79157898 0.18780701 539.14565796 -0.0696106 538.48016357 C-4.53275043 526.90921586 -8.66944747 515.23214274 -12.6875 503.5 C-13.09079025 502.32620285 -13.09079025 502.32620285 -13.50222778 501.12869263 C-16.58764891 492.1240296 -19.50569852 483.09432966 -22.10520935 473.93630981 C-23.1373752 470.32288491 -24.27803037 466.83398232 -25.75 463.375 C-26.41 463.705 -27.07 464.035 -27.75 464.375 C-28.08 461.405 -28.41 458.435 -28.75 455.375 C-29.08 455.375 -29.41 455.375 -29.75 455.375 C-30.74250545 461.08190634 -30.85477512 466.58908489 -30.75 472.375 C-30.09 472.705 -29.43 473.035 -28.75 473.375 C-28.78013184 474.64553223 -28.81026367 475.91606445 -28.84130859 477.22509766 C-28.83757106 482.50880365 -28.13245657 487.56644364 -27.2890625 492.7734375 C-27.13843353 493.73021393 -26.98780457 494.68699036 -26.83261108 495.67276001 C-26.5148983 497.67838471 -26.1936927 499.68345896 -25.86914062 501.68798828 C-25.37331621 504.76043385 -24.89303372 507.83504348 -24.4140625 510.91015625 C-24.10248854 512.86473118 -23.79002026 514.8191638 -23.4765625 516.7734375 C-23.33376862 517.69216644 -23.19097473 518.61089539 -23.04385376 519.5574646 C-22.90385956 520.40910187 -22.76386536 521.26073914 -22.61962891 522.13818359 C-22.49971588 522.88603119 -22.37980286 523.63387878 -22.2562561 524.40438843 C-21.78857491 526.67487694 -21.78857491 526.67487694 -19.75 529.375 C-19.74029617 531.70831316 -19.74223594 534.04167958 -19.75 536.375 C-19.29779115 539.47950564 -18.62695644 542.52974386 -17.95703125 545.59375 C-17.57244111 547.41468186 -17.18800733 549.23564675 -16.80371094 551.05664062 C-16.60096558 552.00514893 -16.39822021 552.95365723 -16.18933105 553.9309082 C16.31786506 706.61027643 16.31786506 706.61027643 -11.75 767.375 C-12.33394531 768.64923828 -12.33394531 768.64923828 -12.9296875 769.94921875 C-17.68413575 779.34335271 -24.91690803 787.33271554 -34.75 791.375 C-42.48559456 793.81115861 -51.02167382 793.12334599 -58.3203125 789.7421875 C-77.91829896 778.71438161 -88.23734328 755.23270108 -94.18066406 734.42578125 C-94.36854492 733.74902344 -94.55642578 733.07226562 -94.75 732.375 C-94.96108398 731.62089844 -95.17216797 730.86679687 -95.38964844 730.08984375 C-105.5786979 692.8048052 -104.74652861 653.43584131 -99.75 615.375 C-99.61078125 614.25013184 -99.4715625 613.12526367 -99.328125 611.96630859 C-94.77744942 575.3765595 -86.21543257 539.46257467 -78.15234375 503.52734375 C-77.72589569 501.62519356 -77.72589569 501.62519356 -77.29083252 499.68461609 C-75.88516748 493.41838359 -74.47339641 487.15363098 -73.05126953 480.89111328 C-72.51456602 478.51206286 -71.97794141 476.13299464 -71.44140625 473.75390625 C-71.1987352 472.69429184 -70.95606415 471.63467743 -70.70603943 470.54295349 C-69.05476323 463.19508567 -67.81132909 455.8302807 -66.75 448.375 C-75.06079915 456.33719767 -78.72452579 470.34485676 -82.9375 480.875 C-83.60090721 482.52202414 -84.26464879 484.16891364 -84.92871094 485.81567383 C-88.8443843 495.54200648 -92.68937784 505.29455405 -96.5 515.0625 C-116.01778499 564.95041584 -138.94300157 614.4132783 -172.75 656.375 C-173.16926758 656.89723145 -173.58853516 657.41946289 -174.02050781 657.95751953 C-194.42280489 683.21130198 -222.58582368 709.56509152 -256.3125 713.3125 C-266.64038055 713.81082958 -275.91376386 711.2628028 -283.75 704.375 C-291.36103478 696.31331185 -293.32964203 687.92564971 -293.22607422 677.13134766 C-291.79512665 629.64008762 -255.13561455 580.04530626 -222.37109375 548.01855469 C-220.70195573 546.32629005 -219.15899979 544.56495589 -217.625 542.75 C-210.63892396 534.66002933 -202.92218638 527.09065174 -194.7734375 520.1796875 C-191.23840996 517.0268251 -187.96417963 513.60638877 -184.65625 510.21875 C-181.84452378 507.40353095 -178.85334526 504.81813396 -175.84716797 502.21386719 C-172.34250132 499.14085797 -168.95273014 495.94815917 -165.5625 492.75 C-164.82999023 492.05994873 -164.09748047 491.36989746 -163.34277344 490.65893555 C-156.6816535 484.35781742 -150.19148127 477.89930032 -143.75 471.375 C-142.82703125 470.47136719 -141.9040625 469.56773437 -140.953125 468.63671875 C-138.72529575 466.57871792 -138.72529575 466.57871792 -137.75 464.375 C-136.41666667 463.70833333 -135.08333333 463.04166667 -133.75 462.375 C-133.42 461.715 -133.09 461.055 -132.75 460.375 C-132.09 460.375 -131.43 460.375 -130.75 460.375 C-130.49347656 459.78847656 -130.23695313 459.20195313 -129.97265625 458.59765625 C-128.63826104 456.17187071 -127.20514672 454.69971299 -125.1875 452.8125 C-120.26322817 448.01311913 -116.01391548 442.76019558 -111.75 437.375 C-110.71552734 436.07175781 -110.71552734 436.07175781 -109.66015625 434.7421875 C-106.4116908 430.74910777 -106.4116908 430.74910777 -103.75 426.375 C-118.5272515 432.73105383 -131.42554234 442.02191222 -144.56787109 451.16210938 C-147.91912089 453.49260869 -151.27993852 455.8087069 -154.64453125 458.11987305 C-155.90712019 458.98726008 -157.16886268 459.85588073 -158.4296875 460.72583008 C-163.29339105 464.07881793 -168.20544862 467.3557193 -173.12841797 470.62084961 C-177.51369209 473.5350418 -181.85746399 476.50449225 -186.1875 479.5 C-195.07482693 485.64144937 -204.07120901 491.61778284 -213.0703125 497.59375 C-216.30632823 499.74332088 -219.53541658 501.90079776 -222.7421875 504.09375 C-263.72843558 532.05499747 -317.92397788 566.17935249 -370.0625 558.625 C-381.59246642 556.37219788 -391.3782814 552.62702289 -398.1875 542.6875 C-402.35618324 536.11074906 -402.35404405 530.01747037 -401.75 522.375 C-399.89016752 514.21306002 -394.83772733 507.8439658 -389.75 501.375 C-389.07839844 500.50875 -388.40679687 499.6425 -387.71484375 498.75 C-377.8094583 486.77688996 -363.18653683 477.88166795 -349.75 470.375 C-348.62174805 469.73908936 -348.62174805 469.73908936 -347.47070312 469.09033203 C-300.83389074 443.04034111 -247.37896529 430.71162775 -196.0696106 417.42889404 C-162.79035575 409.26269175 -162.79035575 409.26269175 -130.75 397.375 C-139.24776251 397.05186634 -147.4934157 397.92656376 -155.90210152 399.0442543 C-158.28688034 399.36113444 -160.6726519 399.66934194 -163.05882263 399.97555542 C-166.48848352 400.41633709 -169.91770539 400.86032484 -173.34661865 401.30688477 C-182.37520129 402.48090424 -191.40769786 403.62397738 -200.44140625 404.7578125 C-201.34766754 404.87157982 -202.25392883 404.98534714 -203.18765259 405.10256195 C-220.47743485 407.26645656 -237.78424734 409.17037598 -255.125 410.875 C-256.30826874 410.99224426 -257.49153748 411.10948853 -258.71066284 411.23028564 C-271.00962851 412.44181813 -283.31543293 413.53331534 -295.63671875 414.4921875 C-296.67021454 414.57279419 -297.70371033 414.65340088 -298.76852417 414.7364502 C-316.06430448 416.04366803 -333.40563976 416.71444823 -350.75 416.375 C-351.53810059 416.36243164 -352.32620117 416.34986328 -353.13818359 416.33691406 C-381.22454315 415.78520766 -417.60219026 414.02575276 -439.75 394.375 C-443.95418978 388.97079542 -447.88307176 383.42780353 -447.75 376.375 C-446.25146533 366.93423159 -441.64428287 360.4019833 -434.40625 354.26171875 C-429.55826856 350.81822605 -424.25336678 348.56807097 -418.75 346.375 C-417.98945313 346.06820313 -417.22890625 345.76140625 -416.4453125 345.4453125 C-403.27783206 340.62551777 -388.96207134 339.41255227 -375.0625 338.8125 C-374.17111328 338.76931641 -373.27972656 338.72613281 -372.36132812 338.68164062 C-359.58733623 338.10967084 -346.88585728 338.36798739 -334.125 339.125 C-333.40632751 339.1669046 -332.68765503 339.2088092 -331.94720459 339.25198364 C-309.75229498 340.5742865 -287.49226526 342.85683215 -265.55517578 346.51147461 C-262.55182644 347.00670405 -259.72875643 347.37467567 -256.6796875 347.328125 C-253.75 347.375 -253.75 347.375 -250.57495117 348.28369141 C-246.61911969 349.41234186 -242.66974628 350.19389867 -238.62109375 350.8828125 C-237.86836685 351.01315887 -237.11563995 351.14350525 -236.34010315 351.27780151 C-234.75970281 351.55026349 -233.17896151 351.82075447 -231.59790039 352.08935547 C-229.18973592 352.49961908 -226.78335081 352.91935587 -224.37695312 353.33984375 C-222.83343167 353.60474031 -221.28981489 353.86908214 -219.74609375 354.1328125 C-219.03343857 354.25778107 -218.32078339 354.38274963 -217.58653259 354.51150513 C-213.59570275 355.18089868 -209.79507808 355.50060637 -205.75 355.375 C-205.75 356.035 -205.75 356.695 -205.75 357.375 C-204.65217949 357.44793274 -204.65217949 357.44793274 -203.53218079 357.52233887 C-196.29892854 358.05616515 -189.28735058 359.04291687 -182.16796875 360.40625 C-179.99676761 360.80871686 -177.82554291 361.21105666 -175.65429688 361.61328125 C-172.29722631 362.24244127 -168.94070948 362.87439283 -165.5847168 363.50927734 C-153.31096933 365.82270096 -141.26178345 368.05879473 -128.75 368.375 C-130.07 368.045 -131.39 367.715 -132.75 367.375 C-132.75 366.715 -132.75 366.055 -132.75 365.375 C-133.35604065 365.19623322 -133.9620813 365.01746643 -134.58648682 364.83328247 C-140.66999819 363.02542378 -146.70885256 361.10892211 -152.734375 359.1171875 C-154.64152638 358.49008706 -156.54875599 357.86322451 -158.45605469 357.23657227 C-159.44166382 356.91246368 -160.42727295 356.5883551 -161.44274902 356.25442505 C-176.52763424 351.29845752 -191.61553714 346.42218996 -206.85302734 341.9543457 C-221.91809296 337.50080441 -236.84886009 332.61335589 -251.79589844 327.78149414 C-252.85497406 327.44013428 -253.91404968 327.09877441 -255.00521851 326.74707031 C-256.99963494 326.10410913 -258.99335619 325.45898586 -260.98623657 324.8112793 C-265.06584054 323.49698595 -269.12668821 322.24304436 -273.29150391 321.22631836 C-276.75 320.375 -276.75 320.375 -278.75 319.375 C-285.07272626 316.61103148 -291.47088563 314.08857567 -297.93261719 311.67260742 C-329.10923335 299.99440038 -360.56820082 286.29670962 -386.75 265.375 C-387.58273437 264.74464844 -388.41546875 264.11429687 -389.2734375 263.46484375 C-403.9151872 252.21794769 -415.81798467 239.171046 -421.75 221.375 C-422.39152263 213.68724522 -422.63160306 206.68220396 -417.75 200.375 C-412.08454019 194.09279394 -405.09416098 191.226445 -396.75 190.375 C-347.05914743 188.00876893 -292.2544672 218.13594078 -250.9050293 243.17333984 C-250.01082275 243.7142627 -249.11661621 244.25518555 -248.1953125 244.8125 C-247.04313232 245.52212891 -247.04313232 245.52212891 -245.86767578 246.24609375 C-243.809108 247.34349027 -241.99719671 247.81909408 -239.75 248.375 C-238.40825472 249.69986798 -237.07604088 251.03441388 -235.75 252.375 C-233.72206654 253.62061166 -231.6541676 254.80216342 -229.5625 255.9375 C-223.34650222 259.38526295 -217.37857045 263.12789224 -211.43212891 267.01904297 C-205.17457519 271.11252017 -198.85606007 275.10280122 -192.52294922 279.078125 C-186.89950601 282.61920077 -181.37251525 286.27222651 -175.90234375 290.046875 C-173.88784793 291.55004371 -173.88784793 291.55004371 -171.75 291.375 C-170.74323994 292.36819393 -169.74495515 293.36998048 -168.75 294.375 C-166.96827062 295.64160892 -165.15836339 296.8689097 -163.33203125 298.0703125 C-161.70841675 299.13838135 -161.70841675 299.13838135 -160.05200195 300.22802734 C-158.8891921 300.98590031 -157.72601789 301.7432145 -156.5625 302.5 C-155.9778598 302.88150208 -155.3932196 303.26300415 -154.79086304 303.65606689 C-143.51318594 311.00499027 -132.21895706 318.20996823 -119.75 323.375 C-119.75 322.385 -119.75 321.395 -119.75 320.375 C-121.8065502 318.3754928 -123.85065752 316.56287812 -126.0625 314.75 C-126.69897461 314.21656982 -127.33544922 313.68313965 -127.99121094 313.13354492 C-132.67974528 309.21567227 -137.42735719 305.36924965 -142.171875 301.51953125 C-145.61498912 298.65548632 -148.90921832 295.64128204 -152.21875 292.625 C-154.8384481 290.29637947 -157.5251531 288.07937053 -160.25 285.875 C-163.8447765 282.9668662 -167.33260628 279.98958668 -170.75 276.875 C-176.59335888 271.55436971 -182.60146409 266.29434009 -189.0703125 261.7421875 C-189.62460937 261.29101562 -190.17890625 260.83984375 -190.75 260.375 C-190.75 259.715 -190.75 259.055 -190.75 258.375 C-191.348125 258.08625 -191.94625 257.7975 -192.5625 257.5 C-194.75 256.375 -194.75 256.375 -197.75 254.375 C-197.75 253.715 -197.75 253.055 -197.75 252.375 C-198.34554687 252.10945313 -198.94109375 251.84390625 -199.5546875 251.5703125 C-201.81329384 250.34053752 -203.13744356 249.12725947 -204.875 247.25 C-208.42252471 243.58014685 -212.28010599 240.47801743 -216.3203125 237.3671875 C-218.9827479 235.18416169 -221.3258682 232.82133002 -223.75 230.375 C-224.75806977 229.37045196 -225.76706314 228.36683013 -226.77685547 227.36401367 C-229.75552145 224.40323096 -232.73106697 221.43933346 -235.70556641 218.47436523 C-236.98070616 217.20425338 -238.25674211 215.93504061 -239.53369141 214.66674805 C-252.95328464 201.33546439 -252.95328464 201.33546439 -258.75 194.375 C-259.29172852 193.73989502 -259.83345703 193.10479004 -260.39160156 192.45043945 C-275.84993339 174.28039504 -288.68526547 155.13515785 -299.8125 134.0625 C-300.54738647 132.67272949 -300.54738647 132.67272949 -301.29711914 131.25488281 C-301.74692139 130.39088867 -302.19672363 129.52689453 -302.66015625 128.63671875 C-303.26549194 127.47595825 -303.26549194 127.47595825 -303.88305664 126.29174805 C-304.75 124.375 -304.75 124.375 -304.75 122.375 C-305.41 122.045 -306.07 121.715 -306.75 121.375 C-307.47880536 119.362109 -308.18938962 117.34135034 -308.82421875 115.296875 C-309.51198933 113.1261898 -310.25218494 110.97197254 -311.01953125 108.828125 C-314.70989724 98.50575832 -317.87890226 88.06828605 -313.75 77.375 C-310.05459009 69.98418018 -305.41457848 65.51806296 -297.6953125 62.59765625 C-285.71985946 59.24189743 -272.60817417 62.56899463 -261.93115234 68.36181641 C-250.53923723 75.00075276 -240.61744334 83.42304633 -231 92.37109375 C-228.92084785 94.39828817 -228.92084785 94.39828817 -226.75 95.375 C-226.75 96.035 -226.75 96.695 -226.75 97.375 C-225.76 97.705 -224.77 98.035 -223.75 98.375 C-223.75 99.035 -223.75 99.695 -223.75 100.375 C-223.110625 100.643125 -222.47125 100.91125 -221.8125 101.1875 C-219.75 102.375 -219.75 102.375 -218.75 105.375 C-218.09 105.375 -217.43 105.375 -216.75 105.375 C-215.33984375 106.7734375 -215.33984375 106.7734375 -213.6875 108.75 C-210.92182591 112.00441067 -208.11691808 115.20913833 -205.25 118.375 C-203.74972187 120.04141631 -202.24970193 121.70806512 -200.75 123.375 C-200.19828125 123.98601562 -199.6465625 124.59703125 -199.078125 125.2265625 C-183.44373001 142.79590737 -169.59231566 161.89236589 -155.90625 180.98828125 C-153.86492342 183.83522965 -151.80346911 186.66515525 -149.71875 189.48046875 C-127.61994787 219.44482702 -107.83984696 251.58094986 -88.67578125 283.46875 C-80.28544371 297.71081192 -80.28544371 297.71081192 -69.75 310.375 C-69.15643829 301.78484298 -70.13521331 293.70885016 -71.5625 285.25 C-71.72782227 284.230271 -71.89314453 283.21054199 -72.06347656 282.15991211 C-72.23459961 281.19706299 -72.40572266 280.23421387 -72.58203125 279.2421875 C-72.73389893 278.37706543 -72.8857666 277.51194336 -73.04223633 276.62060547 C-73.83724711 274.09818078 -74.85897444 273.15753721 -76.75 271.375 C-77 268.75 -77 268.75 -76.75 266.375 C-76.42 266.045 -76.09 265.715 -75.75 265.375 C-76.018533 263.43416112 -76.36665808 261.50426799 -76.74609375 259.58203125 C-77.08930664 257.80022461 -77.08930664 257.80022461 -77.43945312 255.98242188 C-77.68630859 254.73009766 -77.93316406 253.47777344 -78.1875 252.1875 C-78.67048933 249.73668147 -79.14852643 247.28488068 -79.62109375 244.83203125 C-79.83693115 243.73866455 -80.05276855 242.64529785 -80.27514648 241.51879883 C-80.74354766 238.41771817 -80.83507643 235.50575382 -80.75 232.375 C-81.74 232.375 -82.73 232.375 -83.75 232.375 C-83.55664062 231.49199219 -83.36328125 230.60898437 -83.1640625 229.69921875 C-82.33108472 223.8404121 -83.396208 218.01463957 -84.125 212.1875 C-91.57392094 150.35455905 -95.08816609 69.10868312 -55.609375 16.7421875 C-54.99578125 15.96101563 -54.3821875 15.17984375 -53.75 14.375 C-53.13898438 13.55386719 -52.52796875 12.73273438 -51.8984375 11.88671875 C-49.40859264 8.97586376 -46.6530642 6.63036009 -43.625 4.3125 C-43.05458984 3.87494385 -42.48417969 3.4373877 -41.89648438 2.98657227 C-28.97835371 -6.61361953 -14.05361337 -8.51734144 0 0 Z M-117.75 322.375 C-117.42 323.365 -117.09 324.355 -116.75 325.375 C-116.75 324.385 -116.75 323.395 -116.75 322.375 C-117.08 322.375 -117.41 322.375 -117.75 322.375 Z M-27.75 458.375 C-26.75 460.375 -26.75 460.375 -26.75 460.375 Z M245.25 557.375 C249.25 558.375 249.25 558.375 249.25 558.375 Z " fill="#BAA2FE" transform="translate(558.75,103.625)"/>
<path d="M0 0 C0.66 0 1.32 0 2 0 C1.67 0.99 1.34 1.98 1 3 C0.34 2.34 -0.32 1.68 -1 1 C-0.67 0.67 -0.34 0.34 0 0 Z " fill="#BEA6FB" transform="translate(450,532)"/>
<path d="M0 0 C1.98 0 3.96 0 6 0 C6 0.33 6 0.66 6 1 C4.02 1 2.04 1 0 1 C0 0.67 0 0.34 0 0 Z " fill="#BFA8FD" transform="translate(257,519)"/>
<path d="M0 0 C1.98 0 3.96 0 6 0 C6 0.33 6 0.66 6 1 C4.02 1 2.04 1 0 1 C0 0.67 0 0.34 0 0 Z " fill="#C0A7FC" transform="translate(339,511)"/>
<path d="M0 0 C1.65 0 3.3 0 5 0 C3.02 0.99 3.02 0.99 1 2 C0.67 1.34 0.34 0.68 0 0 Z " fill="#C0A8FD" transform="translate(419,501)"/>
<path d="M0 0 C1.65 0 3.3 0 5 0 C3.02 0.99 3.02 0.99 1 2 C0.67 1.34 0.34 0.68 0 0 Z " fill="#C1A8FE" transform="translate(629,499)"/>
<path d="M0 0 C0.66 1.32 1.32 2.64 2 4 C1.34 4 0.68 4 0 4 C0 2.68 0 1.36 0 0 Z " fill="#BBA3FA" transform="translate(465,843)"/>
<path d="M0 0 C1.65 0 3.3 0 5 0 C5 0.33 5 0.66 5 1 C3.35 1 1.7 1 0 1 C0 0.67 0 0.34 0 0 Z " fill="#C1A7FD" transform="translate(642,500)"/>
<path d="M0 0 C4 1 4 1 4 1 Z " fill="#BFA7FC" transform="translate(179,519)"/>
<path d="M0 0 C0.99 0.33 1.98 0.66 3 1 C2.01 1.33 1.02 1.66 0 2 C0 1.34 0 0.68 0 0 Z " fill="#C1A6FD" transform="translate(301,515)"/>
<path d="M0 0 C4 1 4 1 4 1 Z " fill="#C0A7FD" transform="translate(292,516)"/>
<path d="M0 0 C0.66 0.66 1.32 1.32 2 2 C1.01 1.67 0.02 1.34 -1 1 C-0.67 0.67 -0.34 0.34 0 0 Z " fill="#C0A8FD" transform="translate(180,440)"/>
<path d="M0 0 C0.99 0.33 1.98 0.66 3 1 C2.01 1 1.02 1 0 1 C0 0.67 0 0.34 0 0 Z " fill="#BFA5FE" transform="translate(313,435)"/>
<path d="M0 0 C0.33 0.66 0.66 1.32 1 2 C0.01 1.67 -0.98 1.34 -2 1 C-1.34 0.67 -0.68 0.34 0 0 Z " fill="#C0A7FD" transform="translate(850,418)"/>
<path d="M0 0 C1 4 1 4 1 4 Z " fill="#BBA3F8" transform="translate(242,195)"/>
<path d="" fill="#C0A6FB" transform="translate(0,0)"/>
<path d="" fill="#BFA7FC" transform="translate(0,0)"/>
<path d="M0 0 C3 1 3 1 3 1 Z " fill="#BDA4F8" transform="translate(213,663)"/>
<path d="M0 0 C0.66 0.66 1.32 1.32 2 2 C1.34 2 0.68 2 0 2 C0 1.34 0 0.68 0 0 Z " fill="#BFA8FE" transform="translate(553,631)"/>
<path d="" fill="#BFA6FE" transform="translate(0,0)"/>
<path d="M0 0 C3 1 3 1 3 1 Z " fill="#BFA8FC" transform="translate(329,528)"/>
<path d="M0 0 C3 1 3 1 3 1 Z " fill="#C0A8FD" transform="translate(267,518)"/>
<path d="M0 0 C3 1 3 1 3 1 Z " fill="#BFA5FB" transform="translate(160,516)"/>
<path d="M0 0 C3 1 3 1 3 1 Z " fill="#BFA7FE" transform="translate(347,510)"/>
<path d="M0 0 C3 1 3 1 3 1 Z " fill="#C0A7FD" transform="translate(370,507)"/>
<path d="M0 0 C3 1 3 1 3 1 Z " fill="#C0A7FD" transform="translate(411,502)"/>
<path d="M0 0 C3 1 3 1 3 1 Z " fill="#C0A6FE" transform="translate(655,501)"/>
<path d="M0 0 C3 1 3 1 3 1 Z " fill="#C1A8FD" transform="translate(605,498)"/>
<path d="M0 0 C0.66 0.66 1.32 1.32 2 2 C1.34 2 0.68 2 0 2 C0 1.34 0 0.68 0 0 Z " fill="#C1A8FE" transform="translate(415,466)"/>
<path d="M0 0 C3 1 3 1 3 1 Z " fill="#C1A7FE" transform="translate(398,467)"/>
<path d="M0 0 C3 1 3 1 3 1 Z " fill="#BFA8FB" transform="translate(339,456)"/>
<path d="M0 0 C3 1 3 1 3 1 Z " fill="#BFA6FD" transform="translate(160,443)"/>
<path d="M0 0 C0.66 0 1.32 0 2 0 C1.67 0.66 1.34 1.32 1 2 C0.67 1.34 0.34 0.68 0 0 Z " fill="#BEA5FE" transform="translate(322,437)"/>
<path d="M0 0 C3 1 3 1 3 1 Z " fill="#C1A8FE" transform="translate(696,434)"/>
<path d="M0 0 C3 1 3 1 3 1 Z " fill="#C0A9FD" transform="translate(744,424)"/>
<path d="M0 0 C3 1 3 1 3 1 Z " fill="#BFA6FE" transform="translate(696,422)"/>
<path d="M0 0 C3 1 3 1 3 1 Z " fill="#C0A8FD" transform="translate(818,417)"/>
<path d="M0 0 C3 1 3 1 3 1 Z " fill="#C0A7FB" transform="translate(811,417)"/>
<path d="M0 0 C0.66 0 1.32 0 2 0 C1.67 0.66 1.34 1.32 1 2 C0.67 1.34 0.34 0.68 0 0 Z " fill="#C1A7FD" transform="translate(594,409)"/>
<path d="M0 0 C0.66 0 1.32 0 2 0 C1.67 0.66 1.34 1.32 1 2 C0.67 1.34 0.34 0.68 0 0 Z " fill="#BFA6FC" transform="translate(475,337)"/>
<path d="M0 0 C2 1 2 1 2 1 Z " fill="#B9A1F5" transform="translate(524,895)"/>
<path d="" fill="#BCA4FB" transform="translate(0,0)"/>
<path d="M0 0 C2 1 2 1 2 1 Z " fill="#B9A0F1" transform="translate(738,828)"/>
<path d="" fill="#BDA4FA" transform="translate(0,0)"/>
<path d="M0 0 C2 1 2 1 2 1 Z " fill="#B9A3F8" transform="translate(712,823)"/>
<path d="M0 0 C2 1 2 1 2 1 Z " fill="#B9A1F4" transform="translate(283,815)"/>
<path d="" fill="#BBA3FA" transform="translate(0,0)"/>
<path d="" fill="#BCA4F9" transform="translate(0,0)"/>
<path d="" fill="#BDA5FD" transform="translate(0,0)"/>
<path d="" fill="#BFA5FE" transform="translate(0,0)"/>
<path d="" fill="#BFA5FD" transform="translate(0,0)"/>
<path d="M0 0 C2 1 2 1 2 1 Z " fill="#BAA5F9" transform="translate(184,662)"/>
<path d="" fill="#C0A6FD" transform="translate(0,0)"/>
<path d="" fill="#BAA3F4" transform="translate(0,0)"/>
<path d="" fill="#C0A6FF" transform="translate(0,0)"/>
<path d="" fill="#BFA7FD" transform="translate(0,0)"/>
<path d="" fill="#C0A6FE" transform="translate(0,0)"/>
<path d="M0 0 C2 1 2 1 2 1 Z " fill="#BEA8FC" transform="translate(233,560)"/>
<path d="" fill="#C1A9FE" transform="translate(0,0)"/>
<path d="" fill="#C1A7FF" transform="translate(0,0)"/>
<path d="M0 0 C2 1 2 1 2 1 Z " fill="#BEA6FE" transform="translate(681,522)"/>
<path d="M0 0 C2 1 2 1 2 1 Z " fill="#BFA8FF" transform="translate(272,518)"/>
<path d="M0 0 C2 1 2 1 2 1 Z " fill="#BFA6FD" transform="translate(170,518)"/>
<path d="M0 0 C2 1 2 1 2 1 Z " fill="#C1A6FD" transform="translate(287,517)"/>
<path d="" fill="#C1A7FE" transform="translate(0,0)"/>
<path d="" fill="#C1A7FD" transform="translate(0,0)"/>
<path d="M0 0 C2 1 2 1 2 1 Z " fill="#BFA6FD" transform="translate(652,513)"/>
<path d="M0 0 C2 1 2 1 2 1 Z " fill="#C0A5FD" transform="translate(350,511)"/>
<path d="M0 0 C2 1 2 1 2 1 Z " fill="#BEA6FB" transform="translate(140,511)"/>
<path d="M0 0 C2 1 2 1 2 1 Z " fill="#BFA7FD" transform="translate(354,509)"/>
<path d="" fill="#BFA8FC" transform="translate(0,0)"/>
<path d="M0 0 C2 1 2 1 2 1 Z " fill="#BFA6FE" transform="translate(365,508)"/>
<path d="M0 0 C2 1 2 1 2 1 Z " fill="#C1A7FE" transform="translate(374,507)"/>
<path d="M0 0 C2 1 2 1 2 1 Z " fill="#C0A7FD" transform="translate(677,503)"/>
<path d="" fill="#BEA6FC" transform="translate(0,0)"/>
<path d="M0 0 C2 1 2 1 2 1 Z " fill="#C0A6FB" transform="translate(404,503)"/>
<path d="M0 0 C2 1 2 1 2 1 Z " fill="#C0A5FF" transform="translate(672,502)"/>
<path d="M0 0 C2 1 2 1 2 1 Z " fill="#C1A6FF" transform="translate(664,502)"/>
<path d="M0 0 C2 1 2 1 2 1 Z " fill="#BEA5FD" transform="translate(661,502)"/>
<path d="M0 0 C2 1 2 1 2 1 Z " fill="#BFA5FB" transform="translate(842,500)"/>
<path d="M0 0 C2 1 2 1 2 1 Z " fill="#BFA6FA" transform="translate(846,499)"/>
<path d="M0 0 C2 1 2 1 2 1 Z " fill="#C2A8FF" transform="translate(625,499)"/>
<path d="M0 0 C2 1 2 1 2 1 Z " fill="#C2A8FD" transform="translate(622,499)"/>
<path d="M0 0 C2 1 2 1 2 1 Z " fill="#C1A9FD" transform="translate(411,469)"/>
<path d="M0 0 C2 1 2 1 2 1 Z " fill="#C1A7FD" transform="translate(417,468)"/>
<path d="M0 0 C2 1 2 1 2 1 Z " fill="#C2A9FE" transform="translate(408,467)"/>
<path d="M0 0 C2 1 2 1 2 1 Z " fill="#BFA6F9" transform="translate(381,464)"/>
<path d="M0 0 C2 1 2 1 2 1 Z " fill="#C2A7FC" transform="translate(599,459)"/>
<path d="" fill="#C0A6FD" transform="translate(0,0)"/>
<path d="M0 0 C2 1 2 1 2 1 Z " fill="#C0A8FD" transform="translate(301,450)"/>
<path d="" fill="#C0A7FF" transform="translate(0,0)"/>
<path d="M0 0 C2 1 2 1 2 1 Z " fill="#C0AAFC" transform="translate(673,440)"/>
<path d="M0 0 C2 1 2 1 2 1 Z " fill="#BEA7FD" transform="translate(650,438)"/>
<path d="M0 0 C2 1 2 1 2 1 Z " fill="#C1A6FE" transform="translate(316,436)"/>
<path d="" fill="#C0A8FD" transform="translate(0,0)"/>
<path d="M0 0 C2 1 2 1 2 1 Z " fill="#C0A8FD" transform="translate(705,432)"/>
<path d="M0 0 C2 1 2 1 2 1 Z " fill="#C0A6FD" transform="translate(293,428)"/>
<path d="" fill="#BFA5FE" transform="translate(0,0)"/>
<path d="M0 0 C2 1 2 1 2 1 Z " fill="#C0A9FE" transform="translate(736,426)"/>
<path d="" fill="#BEA5FB" transform="translate(0,0)"/>
<path d="M0 0 C2 1 2 1 2 1 Z " fill="#C0A8FE" transform="translate(767,421)"/>
<path d="M0 0 C2 1 2 1 2 1 Z " fill="#C0A7FD" transform="translate(783,419)"/>
<path d="M0 0 C2 1 2 1 2 1 Z " fill="#C0A8FD" transform="translate(836,418)"/>
<path d="M0 0 C2 1 2 1 2 1 Z " fill="#C0A6FD" transform="translate(250,412)"/>
<path d="" fill="#C2A9FC" transform="translate(0,0)"/>
<path d="M0 0 C2 1 2 1 2 1 Z " fill="#BEA7FC" transform="translate(237,407)"/>
<path d="M0 0 C2 1 2 1 2 1 Z " fill="#C0A5FD" transform="translate(746,404)"/>
<path d="" fill="#C1A8FC" transform="translate(0,0)"/>
<path d="" fill="#C0A6FC" transform="translate(0,0)"/>
<path d="" fill="#C1A8FF" transform="translate(0,0)"/>
<path d="" fill="#C0A6FF" transform="translate(0,0)"/>
<path d="" fill="#C0A8FD" transform="translate(0,0)"/>
<path d="" fill="#BFA4FE" transform="translate(0,0)"/>
<path d="M0 0 C2 1 2 1 2 1 Z " fill="#BEA6FD" transform="translate(330,331)"/>
<path d="" fill="#BFA6FD" transform="translate(0,0)"/>
<path d="M0 0 C2 1 2 1 2 1 Z " fill="#BCA3FA" transform="translate(259,320)"/>
<path d="" fill="#C0A7FE" transform="translate(0,0)"/>
<path d="M0 0 C2 1 2 1 2 1 Z " fill="#BEA5FD" transform="translate(576,317)"/>
<path d="M0 0 C2 1 2 1 2 1 Z " fill="#BFA7FB" transform="translate(747,312)"/>
<path d="" fill="#BFA6FC" transform="translate(0,0)"/>
<path d="M0 0 C2 1 2 1 2 1 Z " fill="#BDA4FB" transform="translate(201,298)"/>
<path d="M0 0 C2 1 2 1 2 1 Z " fill="#BDA5FA" transform="translate(801,288)"/>
<path d="" fill="#BFA6FD" transform="translate(0,0)"/>
<path d="" fill="#BCA3FA" transform="translate(0,0)"/>
<path d="" fill="#BEA5FD" transform="translate(0,0)"/>
<path d="" fill="#BDA3F9" transform="translate(0,0)"/>
<path d="" fill="#BAA1F6" transform="translate(0,0)"/>
<path d="" fill="#B9A1F0" transform="translate(0,0)"/>
<path d="" fill="#BAA3F5" transform="translate(0,0)"/>
<path d="" fill="#BAA3F7" transform="translate(0,0)"/>
<path d="" fill="#BCA4FB" transform="translate(0,0)"/>
<path d="" fill="#BDA5FA" transform="translate(0,0)"/>
<path d="" fill="#BCA1F8" transform="translate(0,0)"/>
<path d="" fill="#BDA4FA" transform="translate(0,0)"/>
<path d="" fill="#BAA1F4" transform="translate(0,0)"/>
<path d="" fill="#BFA6FA" transform="translate(0,0)"/>
<path d="" fill="#BBA3FB" transform="translate(0,0)"/>
<path d="" fill="#B9A0F6" transform="translate(0,0)"/>
<path d="" fill="#BCA2F7" transform="translate(0,0)"/>
<path d="" fill="#BBA2F8" transform="translate(0,0)"/>
<path d="" fill="#BCA4FC" transform="translate(0,0)"/>
<path d="" fill="#BAA3F8" transform="translate(0,0)"/>
<path d="" fill="#B7A0F4" transform="translate(0,0)"/>
<path d="" fill="#BCA4F6" transform="translate(0,0)"/>
<path d="" fill="#BAA3F5" transform="translate(0,0)"/>
<path d="" fill="#BBA2F7" transform="translate(0,0)"/>
<path d="" fill="#BEA7FB" transform="translate(0,0)"/>
<path d="" fill="#B7A0F1" transform="translate(0,0)"/>
<path d="" fill="#BEA5FA" transform="translate(0,0)"/>
<path d="" fill="#BFA7FB" transform="translate(0,0)"/>
<path d="" fill="#BEA4FB" transform="translate(0,0)"/>
<path d="" fill="#BEA4FC" transform="translate(0,0)"/>
<path d="" fill="#BEA6FC" transform="translate(0,0)"/>
<path d="" fill="#B9A2F6" transform="translate(0,0)"/>
<path d="" fill="#BDA5FB" transform="translate(0,0)"/>
<path d="" fill="#BCA3FC" transform="translate(0,0)"/>
<path d="" fill="#BDA6F9" transform="translate(0,0)"/>
<path d="" fill="#BDA6F9" transform="translate(0,0)"/>
<path d="" fill="#BFA5FB" transform="translate(0,0)"/>
<path d="" fill="#BEA7FC" transform="translate(0,0)"/>
<path d="" fill="#BCA4FB" transform="translate(0,0)"/>
<path d="" fill="#BEA5FE" transform="translate(0,0)"/>
<path d="" fill="#C0A7FD" transform="translate(0,0)"/>
<path d="" fill="#BEA7FD" transform="translate(0,0)"/>
<path d="" fill="#BFA5FB" transform="translate(0,0)"/>
<path d="" fill="#BFA7FC" transform="translate(0,0)"/>
<path d="" fill="#BDA5FB" transform="translate(0,0)"/>
<path d="" fill="#BFA7FE" transform="translate(0,0)"/>
<path d="" fill="#C1A6FB" transform="translate(0,0)"/>
<path d="" fill="#BDA6FD" transform="translate(0,0)"/>
<path d="" fill="#C1A7FE" transform="translate(0,0)"/>
<path d="" fill="#BEA5FD" transform="translate(0,0)"/>
<path d="" fill="#BEA4FC" transform="translate(0,0)"/>
<path d="" fill="#BEA4FC" transform="translate(0,0)"/>
<path d="" fill="#C0A7FD" transform="translate(0,0)"/>
<path d="" fill="#BFA6FD" transform="translate(0,0)"/>
<path d="" fill="#BEA6FC" transform="translate(0,0)"/>
<path d="" fill="#C1A8FD" transform="translate(0,0)"/>
<path d="" fill="#BEA5FE" transform="translate(0,0)"/>
<path d="" fill="#BEA6FF" transform="translate(0,0)"/>
<path d="" fill="#BDA5FC" transform="translate(0,0)"/>
<path d="" fill="#C0A7FC" transform="translate(0,0)"/>
<path d="" fill="#C0A7FE" transform="translate(0,0)"/>
<path d="" fill="#C0A7FE" transform="translate(0,0)"/>
<path d="" fill="#BEA6FD" transform="translate(0,0)"/>
<path d="" fill="#BDA6FD" transform="translate(0,0)"/>
<path d="" fill="#BFA5FC" transform="translate(0,0)"/>
<path d="" fill="#BFA8FF" transform="translate(0,0)"/>
<path d="" fill="#BFA7FE" transform="translate(0,0)"/>
<path d="" fill="#C1A7FD" transform="translate(0,0)"/>
<path d="" fill="#BFA5FC" transform="translate(0,0)"/>
<path d="" fill="#BCA4F6" transform="translate(0,0)"/>
<path d="" fill="#BEA6F9" transform="translate(0,0)"/>
<path d="" fill="#C2A6FE" transform="translate(0,0)"/>
<path d="" fill="#BDA7FA" transform="translate(0,0)"/>
<path d="" fill="#BBA2F9" transform="translate(0,0)"/>
<path d="" fill="#C0A7FD" transform="translate(0,0)"/>
<path d="" fill="#BFA7FF" transform="translate(0,0)"/>
<path d="" fill="#BDA3FB" transform="translate(0,0)"/>
<path d="" fill="#BCA1F8" transform="translate(0,0)"/>
<path d="" fill="#BEA5FE" transform="translate(0,0)"/>
<path d="" fill="#C0A6FF" transform="translate(0,0)"/>
<path d="" fill="#C1A5FD" transform="translate(0,0)"/>
<path d="" fill="#C0A7FE" transform="translate(0,0)"/>
<path d="" fill="#C1A7FD" transform="translate(0,0)"/>
<path d="" fill="#BCA5FD" transform="translate(0,0)"/>
<path d="" fill="#C2A8FD" transform="translate(0,0)"/>
<path d="" fill="#B9A3F5" transform="translate(0,0)"/>
<path d="" fill="#BEA6FF" transform="translate(0,0)"/>
<path d="" fill="#C0A8FE" transform="translate(0,0)"/>
<path d="" fill="#C0A7FE" transform="translate(0,0)"/>
<path d="" fill="#C1A7FD" transform="translate(0,0)"/>
<path d="" fill="#BEA6FC" transform="translate(0,0)"/>
<path d="" fill="#C0A7FE" transform="translate(0,0)"/>
<path d="" fill="#BFA7FC" transform="translate(0,0)"/>
<path d="" fill="#BFA5FC" transform="translate(0,0)"/>
<path d="" fill="#BFA5FE" transform="translate(0,0)"/>
<path d="" fill="#BAA5F4" transform="translate(0,0)"/>
<path d="" fill="#C0A6FD" transform="translate(0,0)"/>
<path d="" fill="#C0A5FE" transform="translate(0,0)"/>
<path d="" fill="#C1A7FF" transform="translate(0,0)"/>
<path d="" fill="#BFA4FE" transform="translate(0,0)"/>
<path d="" fill="#C2A7FD" transform="translate(0,0)"/>
<path d="" fill="#BFA8FE" transform="translate(0,0)"/>
<path d="" fill="#C0A6FE" transform="translate(0,0)"/>
<path d="" fill="#BEA4FD" transform="translate(0,0)"/>
<path d="" fill="#BAA2F7" transform="translate(0,0)"/>
<path d="" fill="#C0A6FF" transform="translate(0,0)"/>
<path d="" fill="#C0A7FF" transform="translate(0,0)"/>
<path d="" fill="#C0A5FE" transform="translate(0,0)"/>
<path d="" fill="#C0A7FE" transform="translate(0,0)"/>
<path d="" fill="#C1A7FC" transform="translate(0,0)"/>
<path d="" fill="#C0A9FD" transform="translate(0,0)"/>
<path d="" fill="#C0A7FF" transform="translate(0,0)"/>
<path d="" fill="#C0A7FD" transform="translate(0,0)"/>
<path d="" fill="#C0A6FE" transform="translate(0,0)"/>
<path d="" fill="#BEA6FC" transform="translate(0,0)"/>
<path d="" fill="#C1A8FE" transform="translate(0,0)"/>
<path d="" fill="#C0A8FE" transform="translate(0,0)"/>
<path d="" fill="#C0A7FE" transform="translate(0,0)"/>
<path d="" fill="#C0A7FC" transform="translate(0,0)"/>
<path d="" fill="#BBA3F5" transform="translate(0,0)"/>
<path d="" fill="#C0A5F9" transform="translate(0,0)"/>
<path d="" fill="#BFA6FF" transform="translate(0,0)"/>
<path d="" fill="#C1A8FF" transform="translate(0,0)"/>
<path d="" fill="#C0A7FE" transform="translate(0,0)"/>
<path d="" fill="#BFA5FC" transform="translate(0,0)"/>
<path d="" fill="#BEA6FD" transform="translate(0,0)"/>
<path d="" fill="#C1A6FF" transform="translate(0,0)"/>
<path d="" fill="#BFA7FF" transform="translate(0,0)"/>
<path d="" fill="#BEA7FC" transform="translate(0,0)"/>
<path d="" fill="#BEA5FE" transform="translate(0,0)"/>
<path d="" fill="#C0A6FE" transform="translate(0,0)"/>
<path d="" fill="#BFA6FD" transform="translate(0,0)"/>
<path d="" fill="#BFA6FE" transform="translate(0,0)"/>
<path d="" fill="#BEA5FD" transform="translate(0,0)"/>
<path d="" fill="#C0A8FF" transform="translate(0,0)"/>
<path d="" fill="#C0A6FE" transform="translate(0,0)"/>
<path d="" fill="#C1A7FD" transform="translate(0,0)"/>
<path d="" fill="#C0A6FD" transform="translate(0,0)"/>
<path d="" fill="#C1A7FC" transform="translate(0,0)"/>
<path d="" fill="#C1A6FE" transform="translate(0,0)"/>
<path d="" fill="#C1A5FE" transform="translate(0,0)"/>
<path d="" fill="#C0A7FC" transform="translate(0,0)"/>
<path d="" fill="#BFA5FD" transform="translate(0,0)"/>
<path d="" fill="#BDA5FC" transform="translate(0,0)"/>
<path d="" fill="#BDA7F9" transform="translate(0,0)"/>
<path d="" fill="#BFA8FE" transform="translate(0,0)"/>
<path d="" fill="#BFA6FC" transform="translate(0,0)"/>
<path d="" fill="#C0A7FF" transform="translate(0,0)"/>
<path d="" fill="#C0AAFE" transform="translate(0,0)"/>
<path d="" fill="#C2A8FE" transform="translate(0,0)"/>
<path d="" fill="#C0A6FC" transform="translate(0,0)"/>
<path d="" fill="#C0A6FD" transform="translate(0,0)"/>
<path d="" fill="#BFA6FD" transform="translate(0,0)"/>
<path d="" fill="#BCA5FC" transform="translate(0,0)"/>
<path d="" fill="#BFA7FC" transform="translate(0,0)"/>
<path d="" fill="#C0A8FD" transform="translate(0,0)"/>
<path d="" fill="#BFA6FC" transform="translate(0,0)"/>
<path d="" fill="#C0A6FD" transform="translate(0,0)"/>
<path d="" fill="#C0A8FD" transform="translate(0,0)"/>
<path d="" fill="#C1A7FD" transform="translate(0,0)"/>
<path d="" fill="#BEA4FC" transform="translate(0,0)"/>
<path d="" fill="#BEA6FD" transform="translate(0,0)"/>
<path d="" fill="#BEA4FE" transform="translate(0,0)"/>
<path d="" fill="#BFA7FC" transform="translate(0,0)"/>
<path d="" fill="#C0A6FE" transform="translate(0,0)"/>
<path d="" fill="#C0A5FC" transform="translate(0,0)"/>
<path d="" fill="#BDA4FC" transform="translate(0,0)"/>
<path d="" fill="#BDA6FB" transform="translate(0,0)"/>
<path d="" fill="#C3ABFE" transform="translate(0,0)"/>
<path d="" fill="#BEA7FE" transform="translate(0,0)"/>
<path d="" fill="#C1A7FE" transform="translate(0,0)"/>
<path d="" fill="#C0A7FE" transform="translate(0,0)"/>
<path d="" fill="#BFA7FE" transform="translate(0,0)"/>
<path d="" fill="#BFA6FE" transform="translate(0,0)"/>
<path d="" fill="#BFA7FF" transform="translate(0,0)"/>
<path d="" fill="#C0A7FE" transform="translate(0,0)"/>
<path d="" fill="#C1A7FC" transform="translate(0,0)"/>
<path d="" fill="#C2A8FF" transform="translate(0,0)"/>
<path d="" fill="#BDA5FB" transform="translate(0,0)"/>
<path d="" fill="#BFA5FD" transform="translate(0,0)"/>
<path d="" fill="#BDA6FE" transform="translate(0,0)"/>
<path d="" fill="#C0A8FF" transform="translate(0,0)"/>
<path d="" fill="#BFA6FD" transform="translate(0,0)"/>
<path d="" fill="#C1A9FF" transform="translate(0,0)"/>
<path d="" fill="#C0A7FC" transform="translate(0,0)"/>
<path d="" fill="#C0A7FB" transform="translate(0,0)"/>
<path d="" fill="#C1A7FC" transform="translate(0,0)"/>
<path d="" fill="#C0A8FE" transform="translate(0,0)"/>
<path d="" fill="#C2A7FD" transform="translate(0,0)"/>
<path d="" fill="#C0A7FA" transform="translate(0,0)"/>
<path d="" fill="#C1A6FD" transform="translate(0,0)"/>
<path d="" fill="#C0A8FF" transform="translate(0,0)"/>
<path d="" fill="#C0A8FD" transform="translate(0,0)"/>
<path d="" fill="#C0A7FC" transform="translate(0,0)"/>
<path d="" fill="#C0A7FE" transform="translate(0,0)"/>
<path d="" fill="#BFA5FE" transform="translate(0,0)"/>
<path d="" fill="#C0A5FC" transform="translate(0,0)"/>
<path d="" fill="#C1A8FE" transform="translate(0,0)"/>
<path d="" fill="#BEA7FD" transform="translate(0,0)"/>
<path d="" fill="#C1A5FC" transform="translate(0,0)"/>
<path d="" fill="#C0A9FD" transform="translate(0,0)"/>
<path d="" fill="#BCA8FA" transform="translate(0,0)"/>
<path d="" fill="#C1AAFE" transform="translate(0,0)"/>
<path d="" fill="#BFA7FD" transform="translate(0,0)"/>
<path d="" fill="#BFA7FD" transform="translate(0,0)"/>
<path d="" fill="#BFA7FD" transform="translate(0,0)"/>
<path d="" fill="#BEA5FA" transform="translate(0,0)"/>
<path d="" fill="#C0A5FE" transform="translate(0,0)"/>
<path d="" fill="#C0A6FC" transform="translate(0,0)"/>
<path d="" fill="#C1A8FD" transform="translate(0,0)"/>
<path d="" fill="#C3A9FE" transform="translate(0,0)"/>
<path d="" fill="#C1A7FF" transform="translate(0,0)"/>
<path d="" fill="#C2A7FF" transform="translate(0,0)"/>
<path d="" fill="#BEA6F9" transform="translate(0,0)"/>
<path d="" fill="#C0A5FC" transform="translate(0,0)"/>
<path d="" fill="#C1A5FD" transform="translate(0,0)"/>
<path d="" fill="#C2A7FE" transform="translate(0,0)"/>
<path d="" fill="#C1AAFC" transform="translate(0,0)"/>
<path d="" fill="#C0A4FF" transform="translate(0,0)"/>
<path d="" fill="#BEA5FB" transform="translate(0,0)"/>
<path d="" fill="#C1A8FF" transform="translate(0,0)"/>
<path d="" fill="#C0A7FF" transform="translate(0,0)"/>
<path d="" fill="#C0A8FD" transform="translate(0,0)"/>
<path d="" fill="#C0A7FC" transform="translate(0,0)"/>
<path d="" fill="#C0A7FC" transform="translate(0,0)"/>
<path d="" fill="#C0A7FF" transform="translate(0,0)"/>
<path d="" fill="#C2A6FF" transform="translate(0,0)"/>
<path d="" fill="#C1A7FD" transform="translate(0,0)"/>
<path d="" fill="#C0A6FE" transform="translate(0,0)"/>
<path d="" fill="#BFA6FE" transform="translate(0,0)"/>
<path d="" fill="#C1A8FE" transform="translate(0,0)"/>
<path d="" fill="#C0A8FE" transform="translate(0,0)"/>
<path d="" fill="#BFA7FB" transform="translate(0,0)"/>
<path d="" fill="#C0A7FF" transform="translate(0,0)"/>
<path d="" fill="#BFA9FD" transform="translate(0,0)"/>
<path d="" fill="#C0A8FF" transform="translate(0,0)"/>
<path d="" fill="#C3A8FB" transform="translate(0,0)"/>
<path d="" fill="#BEA9FA" transform="translate(0,0)"/>
<path d="" fill="#C1A8FF" transform="translate(0,0)"/>
<path d="" fill="#BFA6FB" transform="translate(0,0)"/>
<path d="" fill="#BFA7FE" transform="translate(0,0)"/>
<path d="" fill="#BEA7FC" transform="translate(0,0)"/>
<path d="" fill="#BFA7FF" transform="translate(0,0)"/>
<path d="" fill="#C1A8FB" transform="translate(0,0)"/>
<path d="" fill="#C1A7FD" transform="translate(0,0)"/>
<path d="" fill="#BDA6FA" transform="translate(0,0)"/>
<path d="" fill="#C1A8FF" transform="translate(0,0)"/>
<path d="" fill="#BCA6F4" transform="translate(0,0)"/>
<path d="" fill="#BBA3F7" transform="translate(0,0)"/>
<path d="" fill="#BEA3F8" transform="translate(0,0)"/>
<path d="" fill="#BCA4F4" transform="translate(0,0)"/>
<path d="" fill="#BBA4F4" transform="translate(0,0)"/>
<path d="" fill="#C2AAFE" transform="translate(0,0)"/>
<path d="" fill="#C2A8FE" transform="translate(0,0)"/>
<path d="" fill="#C2A8FF" transform="translate(0,0)"/>
<path d="" fill="#C0A7FD" transform="translate(0,0)"/>
<path d="" fill="#C2A8FF" transform="translate(0,0)"/>
<path d="" fill="#C1A8FF" transform="translate(0,0)"/>
<path d="" fill="#C2A8FE" transform="translate(0,0)"/>
<path d="" fill="#C1A7FD" transform="translate(0,0)"/>
<path d="" fill="#C2A8FD" transform="translate(0,0)"/>
<path d="" fill="#C0A8FE" transform="translate(0,0)"/>
<path d="" fill="#C1A8FC" transform="translate(0,0)"/>
<path d="" fill="#C0A7FC" transform="translate(0,0)"/>
<path d="" fill="#C3A8FF" transform="translate(0,0)"/>
<path d="" fill="#C2A7FF" transform="translate(0,0)"/>
<path d="" fill="#C0A8FE" transform="translate(0,0)"/>
<path d="" fill="#C0A8FE" transform="translate(0,0)"/>
<path d="" fill="#C2A9FE" transform="translate(0,0)"/>
<path d="" fill="#BFA6FB" transform="translate(0,0)"/>
<path d="" fill="#C0A8FF" transform="translate(0,0)"/>
<path d="" fill="#C1A7FE" transform="translate(0,0)"/>
<path d="" fill="#C2A9FE" transform="translate(0,0)"/>
<path d="" fill="#C0A7FF" transform="translate(0,0)"/>
<path d="" fill="#BFA5FD" transform="translate(0,0)"/>
<path d="" fill="#C0A7FC" transform="translate(0,0)"/>
<path d="" fill="#C0A7FD" transform="translate(0,0)"/>
<path d="" fill="#C1A6FE" transform="translate(0,0)"/>
<path d="" fill="#C2A7FF" transform="translate(0,0)"/>
<path d="" fill="#C2A8FE" transform="translate(0,0)"/>
<path d="" fill="#C2A8FD" transform="translate(0,0)"/>
<path d="" fill="#BFA6FC" transform="translate(0,0)"/>
<path d="" fill="#C1A8FD" transform="translate(0,0)"/>
<path d="" fill="#C1A7FE" transform="translate(0,0)"/>
<path d="" fill="#BFA8FE" transform="translate(0,0)"/>
<path d="" fill="#BEA6FC" transform="translate(0,0)"/>
<path d="" fill="#C1A9FB" transform="translate(0,0)"/>
<path d="" fill="#C0A9FD" transform="translate(0,0)"/>
<path d="" fill="#C1A9FC" transform="translate(0,0)"/>
<path d="" fill="#BEA7FA" transform="translate(0,0)"/>
<path d="" fill="#C1AAFC" transform="translate(0,0)"/>
<path d="" fill="#BFA8FB" transform="translate(0,0)"/>
<path d="" fill="#BEA8FC" transform="translate(0,0)"/>
<path d="" fill="#C0A7FD" transform="translate(0,0)"/>
<path d="" fill="#C0A7FF" transform="translate(0,0)"/>
<path d="" fill="#C2A8FE" transform="translate(0,0)"/>
<path d="" fill="#C2A8FD" transform="translate(0,0)"/>
<path d="" fill="#C0A7FF" transform="translate(0,0)"/>
<path d="" fill="#BFA6FE" transform="translate(0,0)"/>
<path d="" fill="#C0A5FF" transform="translate(0,0)"/>
<path d="" fill="#C0A8FF" transform="translate(0,0)"/>
<path d="" fill="#C2A8FE" transform="translate(0,0)"/>
<path d="" fill="#C2A7FD" transform="translate(0,0)"/>
<path d="" fill="#C0A7FC" transform="translate(0,0)"/>
<path d="" fill="#C1A8FC" transform="translate(0,0)"/>
<path d="" fill="#BFA7FD" transform="translate(0,0)"/>
<path d="" fill="#BEA6FE" transform="translate(0,0)"/>
<path d="" fill="#C0A7FE" transform="translate(0,0)"/>
<path d="" fill="#BDA7FA" transform="translate(0,0)"/>
<path d="" fill="#BBA4FB" transform="translate(0,0)"/>
<path d="" fill="#C0A7FD" transform="translate(0,0)"/>
<path d="" fill="#C0A4FD" transform="translate(0,0)"/>
<path d="" fill="#C1A6FD" transform="translate(0,0)"/>
<path d="" fill="#BFA6FE" transform="translate(0,0)"/>
<path d="" fill="#BFA6FC" transform="translate(0,0)"/>
<path d="" fill="#C0A6FE" transform="translate(0,0)"/>
<path d="" fill="#BEA6FE" transform="translate(0,0)"/>
<path d="" fill="#C3A9FF" transform="translate(0,0)"/>
<path d="" fill="#C2A6FF" transform="translate(0,0)"/>
<path d="" fill="#C2A8FF" transform="translate(0,0)"/>
<path d="" fill="#BEA6FB" transform="translate(0,0)"/>
<path d="" fill="#C1A7FF" transform="translate(0,0)"/>
<path d="" fill="#C0A6FD" transform="translate(0,0)"/>
<path d="" fill="#C1A6FF" transform="translate(0,0)"/>
<path d="" fill="#C1A8FC" transform="translate(0,0)"/>
<path d="" fill="#C1A9FE" transform="translate(0,0)"/>
<path d="" fill="#BEA8FB" transform="translate(0,0)"/>
<path d="" fill="#C1A8FC" transform="translate(0,0)"/>
<path d="" fill="#BEA7FC" transform="translate(0,0)"/>
<path d="" fill="#BFA6FD" transform="translate(0,0)"/>
<path d="" fill="#BFA3FD" transform="translate(0,0)"/>
<path d="" fill="#C2A8FC" transform="translate(0,0)"/>
<path d="" fill="#C1A6FE" transform="translate(0,0)"/>
<path d="" fill="#BFA8FF" transform="translate(0,0)"/>
<path d="" fill="#BFA7FF" transform="translate(0,0)"/>
<path d="" fill="#BFA7FA" transform="translate(0,0)"/>
<path d="" fill="#C0A6FE" transform="translate(0,0)"/>
<path d="" fill="#C0A6FE" transform="translate(0,0)"/>
<path d="" fill="#C0A8FB" transform="translate(0,0)"/>
<path d="" fill="#C2A8FD" transform="translate(0,0)"/>
<path d="" fill="#BFA8FD" transform="translate(0,0)"/>
<path d="" fill="#BEA5FE" transform="translate(0,0)"/>
<path d="" fill="#C1A8FC" transform="translate(0,0)"/>
<path d="" fill="#BFA6FD" transform="translate(0,0)"/>
<path d="" fill="#C1A8FD" transform="translate(0,0)"/>
<path d="" fill="#BFA6FC" transform="translate(0,0)"/>
<path d="" fill="#C1A7FB" transform="translate(0,0)"/>
<path d="" fill="#C2A7FD" transform="translate(0,0)"/>
<path d="" fill="#C2A9FE" transform="translate(0,0)"/>
<path d="" fill="#BFA7FD" transform="translate(0,0)"/>
<path d="" fill="#BEA5FD" transform="translate(0,0)"/>
<path d="" fill="#C2A8FE" transform="translate(0,0)"/>
<path d="" fill="#BFA6FB" transform="translate(0,0)"/>
<path d="" fill="#C1A6FB" transform="translate(0,0)"/>
<path d="" fill="#C2A9FF" transform="translate(0,0)"/>
<path d="" fill="#C3A8FE" transform="translate(0,0)"/>
<path d="" fill="#BFA7FE" transform="translate(0,0)"/>
<path d="" fill="#C1A8FE" transform="translate(0,0)"/>
<path d="" fill="#C1A8FC" transform="translate(0,0)"/>
<path d="" fill="#C2AAFD" transform="translate(0,0)"/>
<path d="" fill="#BFA6FE" transform="translate(0,0)"/>
<path d="" fill="#C2A9FC" transform="translate(0,0)"/>
<path d="" fill="#BEA6FD" transform="translate(0,0)"/>
<path d="" fill="#C0A7FE" transform="translate(0,0)"/>
<path d="" fill="#C0A8FF" transform="translate(0,0)"/>
<path d="" fill="#BEA7FE" transform="translate(0,0)"/>
<path d="" fill="#C1A8FB" transform="translate(0,0)"/>
<path d="" fill="#C1A8FE" transform="translate(0,0)"/>
<path d="" fill="#BFA6FD" transform="translate(0,0)"/>
<path d="" fill="#C0A6FE" transform="translate(0,0)"/>
<path d="" fill="#C0A5FD" transform="translate(0,0)"/>
<path d="" fill="#BDA6FC" transform="translate(0,0)"/>
<path d="" fill="#C1A6FD" transform="translate(0,0)"/>
<path d="" fill="#BFA6FE" transform="translate(0,0)"/>
<path d="" fill="#BFA7FC" transform="translate(0,0)"/>
<path d="" fill="#C2A8FD" transform="translate(0,0)"/>
<path d="" fill="#C1A3FC" transform="translate(0,0)"/>
<path d="" fill="#BEA6FC" transform="translate(0,0)"/>
<path d="" fill="#C1A6FB" transform="translate(0,0)"/>
<path d="" fill="#C0A7FB" transform="translate(0,0)"/>
<path d="" fill="#C1A6FD" transform="translate(0,0)"/>
<path d="" fill="#BEA4FD" transform="translate(0,0)"/>
<path d="" fill="#BFA5FD" transform="translate(0,0)"/>
<path d="" fill="#BFA5FE" transform="translate(0,0)"/>
<path d="" fill="#C3A9FF" transform="translate(0,0)"/>
<path d="" fill="#C0A7FD" transform="translate(0,0)"/>
<path d="" fill="#C0A6FF" transform="translate(0,0)"/>
<path d="" fill="#C2A9FD" transform="translate(0,0)"/>
<path d="" fill="#C0A7FA" transform="translate(0,0)"/>
<path d="" fill="#C2A8FF" transform="translate(0,0)"/>
<path d="" fill="#BBA5FB" transform="translate(0,0)"/>
<path d="" fill="#BEA6FE" transform="translate(0,0)"/>
<path d="" fill="#BEA5FA" transform="translate(0,0)"/>
<path d="" fill="#BDA5FB" transform="translate(0,0)"/>
<path d="" fill="#C0A7FD" transform="translate(0,0)"/>
<path d="" fill="#BEA6FC" transform="translate(0,0)"/>
<path d="" fill="#BFA6FD" transform="translate(0,0)"/>
<path d="" fill="#BEA6FC" transform="translate(0,0)"/>
<path d="" fill="#BFA6FB" transform="translate(0,0)"/>
<path d="" fill="#BEA8FE" transform="translate(0,0)"/>
<path d="" fill="#BFA7FD" transform="translate(0,0)"/>
<path d="" fill="#C0A7FA" transform="translate(0,0)"/>
<path d="" fill="#C2A7FC" transform="translate(0,0)"/>
<path d="" fill="#BFA6FD" transform="translate(0,0)"/>
<path d="" fill="#BFA7FD" transform="translate(0,0)"/>
<path d="" fill="#BEA5FB" transform="translate(0,0)"/>
<path d="" fill="#C0A5FC" transform="translate(0,0)"/>
<path d="" fill="#BFA6FC" transform="translate(0,0)"/>
<path d="" fill="#BEA7F9" transform="translate(0,0)"/>
<path d="" fill="#C0A8FD" transform="translate(0,0)"/>
<path d="" fill="#BEA6FD" transform="translate(0,0)"/>
<path d="" fill="#C0A6FF" transform="translate(0,0)"/>
<path d="" fill="#BEA7FA" transform="translate(0,0)"/>
<path d="" fill="#C1A8FD" transform="translate(0,0)"/>
<path d="" fill="#C0A8FE" transform="translate(0,0)"/>
<path d="" fill="#BDA4F8" transform="translate(0,0)"/>
<path d="" fill="#C0A7FE" transform="translate(0,0)"/>
<path d="" fill="#C0A6FD" transform="translate(0,0)"/>
<path d="" fill="#C0A8FD" transform="translate(0,0)"/>
<path d="" fill="#BFA7FE" transform="translate(0,0)"/>
<path d="" fill="#BDA6FD" transform="translate(0,0)"/>
<path d="" fill="#BEA3FA" transform="translate(0,0)"/>
<path d="" fill="#BEA5FC" transform="translate(0,0)"/>
<path d="" fill="#BFA6FE" transform="translate(0,0)"/>
<path d="" fill="#BDA4F8" transform="translate(0,0)"/>
<path d="" fill="#C1A5FE" transform="translate(0,0)"/>
<path d="" fill="#C0A5FD" transform="translate(0,0)"/>
<path d="" fill="#C0A6FE" transform="translate(0,0)"/>
<path d="" fill="#BFA8FE" transform="translate(0,0)"/>
<path d="" fill="#BFA6FE" transform="translate(0,0)"/>
<path d="" fill="#BCA6F5" transform="translate(0,0)"/>
<path d="" fill="#BDA1FA" transform="translate(0,0)"/>
<path d="" fill="#BAA2F4" transform="translate(0,0)"/>
<path d="" fill="#BCA4F7" transform="translate(0,0)"/>
<path d="" fill="#C1A7FC" transform="translate(0,0)"/>
<path d="" fill="#BEA7FD" transform="translate(0,0)"/>
<path d="" fill="#BEA5FE" transform="translate(0,0)"/>
<path d="" fill="#BEA6FA" transform="translate(0,0)"/>
<path d="" fill="#C0A6FD" transform="translate(0,0)"/>
<path d="" fill="#C0A6FE" transform="translate(0,0)"/>
<path d="" fill="#BFA3FE" transform="translate(0,0)"/>
<path d="" fill="#C0AAFE" transform="translate(0,0)"/>
<path d="" fill="#BCA6FC" transform="translate(0,0)"/>
<path d="" fill="#BEA6FF" transform="translate(0,0)"/>
<path d="" fill="#BEA6FD" transform="translate(0,0)"/>
<path d="" fill="#BDA6FD" transform="translate(0,0)"/>
<path d="" fill="#BDA5FD" transform="translate(0,0)"/>
<path d="" fill="#C1A5FF" transform="translate(0,0)"/>
<path d="" fill="#BEA8FB" transform="translate(0,0)"/>
<path d="" fill="#BDA3FD" transform="translate(0,0)"/>
<path d="" fill="#BEA4FC" transform="translate(0,0)"/>
<path d="" fill="#B9A1F3" transform="translate(0,0)"/>
<path d="" fill="#BCA4F9" transform="translate(0,0)"/>
<path d="" fill="#C0A6FD" transform="translate(0,0)"/>
<path d="" fill="#BDA5FB" transform="translate(0,0)"/>
<path d="" fill="#BCA4F7" transform="translate(0,0)"/>
<path d="" fill="#C0A8FE" transform="translate(0,0)"/>
<path d="" fill="#C0A6FF" transform="translate(0,0)"/>
<path d="" fill="#B7A0F1" transform="translate(0,0)"/>
<path d="" fill="#B7A0F0" transform="translate(0,0)"/>
<path d="" fill="#BDA6FA" transform="translate(0,0)"/>
<path d="" fill="#BEA2FA" transform="translate(0,0)"/>
<path d="" fill="#BDA4F7" transform="translate(0,0)"/>
<path d="" fill="#BCA3F3" transform="translate(0,0)"/>
<path d="" fill="#BEA6FC" transform="translate(0,0)"/>
<path d="" fill="#BAA4F1" transform="translate(0,0)"/>
<path d="" fill="#BFA7FB" transform="translate(0,0)"/>
<path d="" fill="#BDA4FC" transform="translate(0,0)"/>
<path d="" fill="#BCA5FD" transform="translate(0,0)"/>
<path d="" fill="#C0A7FD" transform="translate(0,0)"/>
<path d="" fill="#BDA4FA" transform="translate(0,0)"/>
<path d="" fill="#BFA4FD" transform="translate(0,0)"/>
<path d="" fill="#BEA4F9" transform="translate(0,0)"/>
<path d="" fill="#BDA3FD" transform="translate(0,0)"/>
<path d="" fill="#BEA5FC" transform="translate(0,0)"/>
<path d="" fill="#BEA5FC" transform="translate(0,0)"/>
<path d="" fill="#BEA5FA" transform="translate(0,0)"/>
<path d="" fill="#BCA4FD" transform="translate(0,0)"/>
<path d="" fill="#BEA6FC" transform="translate(0,0)"/>
<path d="" fill="#BDA5FC" transform="translate(0,0)"/>
<path d="" fill="#BFA5FB" transform="translate(0,0)"/>
<path d="" fill="#BDA5FC" transform="translate(0,0)"/>
<path d="" fill="#BEA4F9" transform="translate(0,0)"/>
<path d="" fill="#BCA4F8" transform="translate(0,0)"/>
<path d="" fill="#BBA3F7" transform="translate(0,0)"/>
<path d="" fill="#B9A1F6" transform="translate(0,0)"/>
<path d="" fill="#BBA5FB" transform="translate(0,0)"/>
<path d="" fill="#BEA6FB" transform="translate(0,0)"/>
<path d="" fill="#BCA4FA" transform="translate(0,0)"/>
<path d="" fill="#BCA2FA" transform="translate(0,0)"/>
<path d="" fill="#BEA4F8" transform="translate(0,0)"/>
<path d="" fill="#BAA3F1" transform="translate(0,0)"/>
<path d="" fill="#B9A1F4" transform="translate(0,0)"/>
<path d="" fill="#B9A3F2" transform="translate(0,0)"/>
<path d="" fill="#BBA2F5" transform="translate(0,0)"/>
<path d="" fill="#BBA3F7" transform="translate(0,0)"/>
<path d="" fill="#B8A1F5" transform="translate(0,0)"/>
<path d="" fill="#B89FF3" transform="translate(0,0)"/>
<path d="" fill="#BDA6F7" transform="translate(0,0)"/>
<path d="" fill="#BCA5F9" transform="translate(0,0)"/>
<path d="" fill="#BCA4F6" transform="translate(0,0)"/>
<path d="" fill="#BDA4F8" transform="translate(0,0)"/>
<path d="" fill="#BBA2F5" transform="translate(0,0)"/>
<path d="" fill="#BAA2F4" transform="translate(0,0)"/>
<path d="" fill="#BCA4F7" transform="translate(0,0)"/>
<path d="" fill="#BCA3F7" transform="translate(0,0)"/>
</svg>
